<svg xmlns="http://www.w3.org/2000/svg" viewBox="0 0 100 100" role="img" aria-label="1. Drammen Speidergruppe logo">
  <!-- Blue-grey circular badge background -->
  <circle cx="50" cy="50" r="49" fill="#4a7ba7"/>

  <!-- White outline layer (drawn first, slightly larger shapes) -->
  <ellipse cx="50" cy="31" rx="11" ry="21" fill="white"/>
  <ellipse cx="50" cy="31" rx="11" ry="21" transform="rotate(-57,50,55)" fill="white"/>
  <ellipse cx="50" cy="31" rx="11" ry="21" transform="rotate(57,50,55)" fill="white"/>
  <rect x="29" y="52" width="42" height="11" rx="5" fill="white"/>
  <rect x="44" y="62" width="12" height="20" rx="5" fill="white"/>
  <ellipse cx="37" cy="75" rx="9" ry="7" fill="white"/>
  <ellipse cx="63" cy="75" rx="9" ry="7" fill="white"/>

  <!-- Green fleur-de-lis (top layer) -->
  <ellipse cx="50" cy="31" rx="9" ry="19" fill="#52a535"/>
  <ellipse cx="50" cy="31" rx="9" ry="19" transform="rotate(-57,50,55)" fill="#52a535"/>
  <ellipse cx="50" cy="31" rx="9" ry="19" transform="rotate(57,50,55)" fill="#52a535"/>
  <rect x="31" y="53" width="38" height="9" rx="4" fill="#52a535"/>
  <rect x="45" y="63" width="10" height="18" rx="4" fill="#52a535"/>
  <ellipse cx="37" cy="75" rx="7" ry="5" fill="#52a535"/>
  <ellipse cx="63" cy="75" rx="7" ry="5" fill="#52a535"/>
</svg>
